<?xml version="1.0" encoding="utf-8"?>
<!-- Generator: Adobe Illustrator 16.0.0, SVG Export Plug-In . SVG Version: 6.00 Build 0)  -->
<!DOCTYPE svg PUBLIC "-//W3C//DTD SVG 1.1//EN" "http://www.w3.org/Graphics/SVG/1.1/DTD/svg11.dtd">
<svg version="1.1" id="Decal" xmlns="http://www.w3.org/2000/svg" xmlns:xlink="http://www.w3.org/1999/xlink" x="0px" y="0px"
	 width="599.333px" height="401.333px" viewBox="0 0 599.333 401.333" enable-background="new 0 0 599.333 401.333"
	 xml:space="preserve">
<path id="Layer1" d="M597.222,241.689c-5.568,3.622-10.502,8.836-17.408,9.795c-6.582,1.818-12.966-1.114-19.477-1.605
	c-2.82-9.007-7.852-17.563-15.138-23.666c-1.975-29.893-6.371-60.099-17.463-88.103c-6.61-15.589-15.32-30.191-24.115-44.623
	c-3.003-6.019-10.347-6.906-15.405-10.5c-2.763-3.918-3.523-8.922-6.442-12.77c-5.186-6.68-11.162-13.08-18.857-16.871
	c-8.781-4.073-17.871-7.696-26.047-12.938c-5.087-5.342-9.048-11.685-14.207-16.956c-4.933-3.129-11.177-3.313-16.307-6.075
	c-5.103-4.2-9.527-9.4-15.603-12.276c-6.935-0.239-13.967-0.099-20.831,0.888c-10.444,3.454-20.126,8.781-29.923,13.686
	c-9.865,3.058-20.211,4.34-30.147,7.146c-6.258,2.522-11.388,7.23-17.604,9.768c-7.089-0.663-14.038-2.341-21.099-3.073
	c-25.849,14.728-49.416,33.276-70.514,54.192c-13.854,13.544-22.622,31.064-31.008,48.259l0.817-2.312l-2.509,0.747
	c2.397-0.719,3.354-2.354,2.861-4.934c-6.878,2.283-13.46,5.342-20.028,8.372c-4.99,2.114-8.315,6.596-11.98,10.374
	c-9.95-4.68-20.366-8.626-31.219-10.57c-6.596,0.535-13.009,2.508-19.619,3.043c-11.319,1.057-23.228,2.27-33.066,8.541
	c-6.159,3.665-11.049,9.416-18.026,11.657c-8.386,2.762-15.32,8.978-19.915,16.419c-6.949,11.148-8.752,24.722-6.638,37.563
	c0.479,0.084,1.465,0.268,1.944,0.366c-3.425,11.135-6.342,22.945-4.848,34.671c3.89,11.108,10.571,21.03,18.111,30.008
	c2.071,3.523,5.553-0.549,7.977-1.536c8.104,13.051,22.776,19.916,36.885,24.538c8.33,2.975,17.308,2.593,25.99,1.987
	c6.723-0.492,12.869-4.129,19.662-3.735c13.912-0.014,27.823,0.183,41.733,0.705c-4.863,8.147-7.92,17.182-11.74,25.835
	c-2.114,5.299-5.074,11.035-3.453,16.885c2.071,5.384,6.44,9.472,10.43,13.488c9.119,8.979,21.677,12.756,33.404,16.956
	c2.17,3.48,5.003,6.581,8.653,8.526c24.06,12.728,52.192,17.746,79.126,13.573c4.369-0.677,9.076-2.41,11.205-6.61
	c2.804-5.554,2.452-12.036,2.875-18.082c-0.861-15.744-3.834-31.29-5.596-46.948c15.574,1.902,31.219,3.228,46.864,4.594
	c34.912,2.692,69.809-1.592,104.509-5.046c0.143,3.58,0.466,7.16,1.382,10.629c4.031,15.699,8.555,31.289,14.165,46.51
	c1.55,3.975,3.086,8.357,6.821,10.838c5.158,3.482,11.628,4.187,17.688,4.524c8.923,0.198,17.887-0.127,26.752-1.198
	c11.642-0.605,21.72-7.512,30.697-14.362c6.455-4.82,8.456-13.389,5.314-20.746c7.454-4.172,15.095-8.794,19.858-16.123
	c4.115-6.343,9.091-12.771,9.853-20.551c0.592-3.297-1.383-6.313-3.877-8.26c-9.766-7.935-20.113-15.121-30.458-22.254
	c7.315-3.002,14.842-6.329,20.41-12.121c3.579-3.679,5.426-8.555,6.977-13.333c8.61,1.227,18.659,1.522,25.326-5.046
	C591.119,258.04,598.562,250.683,597.222,241.689z M82.961,203.254c-0.283-4.65,5.271-4.242,8.315-3.326
	c0.141,2.199,0.211,4.397,0.211,6.596C88.204,208.638,82.637,208.243,82.961,203.254z"/>
<path id="Layer2" fill="#FF0000" d="M370.345,9.556c6.37-1.142,12.883-0.902,19.323-1.269c4.595,2.917,8.767,6.413,12.613,10.261
	c5.019,5.003,13.066,4.087,18.578,8.217c5.003,4.933,8.568,11.134,13.6,16.04c12.163,9.118,28.752,11.26,39.056,23.029
	c4.468,4.313,7.71,9.655,9.768,15.504c2.284,8.118,13.403,6.877,17.237,13.728c6.694,10.895,13.179,21.944,18.915,33.374
	c9.429,18.549,14.757,38.943,17.829,59.45c-4.75,3.651-10.345,6.54-13.08,12.206c-10.388-1.226-19.097,5.483-28.386,8.895
	c-4.044-2.439-8.373-4.638-13.163-4.947c-10.021-0.847-19.663-4.468-29.781-4.187c-4.523,0.015-9.051,0.015-13.559-0.056
	c-0.72-8.218-1.438-16.435-2.002-24.666c-0.451-8.949-3.919-17.308-6.047-25.919c-4.836-16.773-10.007-33.446-14.587-50.289
	c10.923-7.597,23.071-13.742,32.247-23.566c4.524-4.651,9.965-8.499,13.432-14.08c-1.396,0.705-4.214,2.128-5.607,2.833
	c0.646-1.846,1.957-5.567,2.606-7.427c-8.627,4.594-12.912,14.305-21.325,19.21c-8.316,4.764-16.745,9.331-25.046,14.095
	c-2.043,0.986-4.158,2.706-6.567,1.959c-13.588-2.764-26.936-6.751-40.69-8.696c-20.114-3.087-40.198-6.441-60.325-9.443
	c0.577-0.987,1.17-1.987,1.761-2.988c-2.241-1.254-4.213-2.932-5.495-5.172c-5.61-8.809-11.29-17.576-17.126-26.244
	c3.003,0.184,6.019,0.888,9.035,0.507c5.779-2.423,10.613-6.623,16.293-9.231c12.487-4.609,26.694-4.087,38.279-11.176
	C355.32,15.743,362.635,12.106,370.345,9.556 M271.614,37.561c3.692-0.705,7.441,0.833,11.049,1.579
	c0.804,2.325,1.649,4.623,2.495,6.92c-0.846,0.226-2.537,0.677-3.383,0.888c5.497,8.879,12.29,16.913,18.238,25.497
	c-16.222,26.85-33.756,52.925-49.625,79.972c2.283-0.832,4.538-1.748,6.808-2.607c-1.185,2.198-2.382,4.411-3.538,6.638
	c-5.977-4.242-13.362-4.82-20.381-5.596c-3.058-5.144-5.975-10.641-10.769-14.418c-7.286-5.257-16.603-5.934-24.707-9.231
	c-4.102-4.455-7.526-9.88-13.616-11.839c9.303-16.928,23.411-30.388,37.984-42.763C237.533,59.463,253.784,47.174,271.614,37.561
	 M305.327,77.8c16.293,4.355,32.967,7.033,49.402,10.754c14.278,3.115,28.555,6.229,42.805,9.415
	c7.61,16.195,14.095,32.896,21.198,49.317c2.846,7.864,7.201,15.334,7.879,23.819c1.253,9.345,2.915,18.634,3.494,28.048
	c-0.057,1.832,0.479,4.116-1.114,5.483c-4.242,4.214-9.738,6.863-14.052,10.994c-5.707-1.763-11.938-4.3-17.844-1.862
	c-6.146,2.467-12.12,6.188-18.957,6.16c-6.271-0.691-11.881-4.003-18.083-5.073c-7.174-1.622-14.446,0.196-21.592,0.873
	c-5.455-2.508-8.02-9.034-13.968-10.613c-8.117-2.212-16.519-3.157-24.848-4.215c0.14-1.112,0.423-3.325,0.564-4.425
	c-1.142,0.353-2.284,0.719-3.412,1.085c-4.326-5.173-8.386-10.642-13.587-14.996c-5.764-4.75-13.065-6.851-19.958-9.415
	c-2.593-5.384-5.44-10.685-9.189-15.362c4.284-4.327,6.99-9.824,10.274-14.87C278.054,121.239,291.528,99.407,305.327,77.8
	 M183.144,117.279c5.355,1.621,8.794,6.116,12.191,10.232c-4.524,7.512-9.147,14.954-13.77,22.396
	c-3.876-2.086-7.667-4.313-11.402-6.638C174.32,134.516,178.521,125.792,183.144,117.279 M183.905,151.458
	c5.736-6.456,9.655-14.208,13.883-21.663c6.991,1.677,14.066,3.411,20.605,6.497c5.835,2.721,9.077,8.612,12.08,13.996
	c-9.585,4.539-18.999,9.443-28.217,14.672C196.562,159.9,190.176,155.742,183.905,151.458 M141.959,149.541
	c6.54-8.147,16.604-11.473,25.976-15.137l2.509-0.747l-0.817,2.312c-1.085,2.903-2.382,5.834-2.439,8.992
	c13.404,9.527,29.374,16.377,39.493,29.922c13.531,17.787,26.074,36.52,42.058,52.306c18.704,18.209,42.959,29.851,68.062,36.306
	c20.619,5.216,41.196,10.838,62.255,13.981c21.127,3.313,42.548,4.173,63.916,4.2c18.874-0.437,37.901-0.888,56.421-4.848
	c13.98-2.776,26.609-10.232,37.449-19.267c3.453-3.158,7.412-6.26,9.105-10.77c1.183-4.805,0.309-9.795,0.152-14.671
	c4.469,6.257,9.558,12.698,10.317,20.634c0.832,7.482-0.056,15.447-3.606,22.17c-3.652,6.808-10.909,10.402-17.604,13.558
	c-24.695,10.601-51.516,14.843-78.168,16.872c-37.871,3.438-75.955-1.86-112.769-10.713c-28.062-6.977-55.955-16.277-80.634-31.67
	c-17.533-10.654-33.192-24.016-48.217-37.897c-15.236-14.151-27.202-31.275-39.507-47.922c-6.398-9.049-15.264-15.912-24.284-22.171
	c-0.649,0.775-1.945,2.34-2.594,3.114C146.681,155.235,144.328,152.388,141.959,149.541 M90.77,143.846
	c7.23-0.719,14.545-3.792,21.803-1.606c9.429,2.621,18.873,5.75,27.428,10.571c5.101,4.735,8.344,11.149,13.305,16.025
	c1.071,0.028,3.199,0.085,4.27,0.112c6.709,8.315,12.107,17.575,17.28,26.893c5.398,15.291,12.854,30.4,12.981,46.989
	c0.69,14.912-3.834,29.627-10.853,42.649c-2.875,4.539-6.54,8.501-9.796,12.771c-15.109-1.537-30.33-0.931-45.509-1.27
	c4.1-1.832,8.061-4.692,12.727-4.511c8.935,0.269,17.9-0.381,26.821,0.552c-5.073-2.596-8.837-6.95-12.98-10.741
	c-0.761-1.127-1.521-2.256-2.283-3.384c-18.027,12.107-38.521,23.27-60.86,22.707c-7.865,0.197-15.321-2.693-22.522-5.497
	c-9.979-3.976-19.634-9.909-25.413-19.238c9.458-3.777,19.732-2.282,29.641-2.538c9.753,0.057,20.126,0.776,29.063-3.933
	c3.059-1.634,4.581-4.904,4.651-8.288c-4.468,3.046-8.471,7.218-14.193,7.726c-14.179,2.015-28.683-0.662-42.875,1.451
	c-5.637,0.719-10.486,4.356-15.814,5.554c-6.991-8.005-12.839-17.183-16.604-27.146c-1.621-8.992,0.55-18.069,2.538-26.837
	c1.494-7.61,6.807-13.601,9.95-20.534c3.298-7.146,8.118-13.601,10.345-21.227c-6.652,0.649-10.5,6.497-14.207,11.318
	c-2.734,3.382-4.524,7.399-5.355,11.655c-2.381-7.286,0.677-14.785,3.637-21.409c4.186-8.556,11.543-15.758,20.733-18.702
	c6.962-2.228,11.797-8.007,17.928-11.699C66.724,145.707,79.142,145.143,90.77,143.846 M142.368,177.095
	c9.626,11.515,19.789,23.467,23.806,38.28c2.974,11.403-1.733,22.833-1.24,34.265c1.677-1.368,3.749-2.666,3.749-5.104
	c1.988-12.022,4.187-25.018-0.859-36.604c-5.426-12.443-13.502-23.691-22.974-33.361C142.735,172.458,140.24,174.98,142.368,177.095
	 M58.747,184.565c-5.539,5.229-10.119,11.331-15.124,17.04c-0.112,1.789-0.225,3.58-0.337,5.369
	c1.775-0.113,3.538-0.226,5.313-0.324c5.455-8.034,11.163-16.279,19.14-22.028c8.034-4.906,17.956-6.456,27.202-5.356
	c9.486,1.212,16.547,8.344,25.342,11.29c-0.451-0.902-1.367-2.722-1.818-3.623c-6.54-4.976-14.052-9.049-22.127-10.824
	C83.355,174.374,69.881,177.813,58.747,184.565 M77.252,194.474c-6.23,2.564-10.599,9.133-10.176,15.926
	c-0.395,8.02,5.934,15.434,13.714,16.871c10.218,2.566,21.197-6.356,20.676-16.913C102.186,198.307,88.063,189.005,77.252,194.474
	 M230.642,152.712c6.469,0.916,13.53,0.578,19.295,4.031c5.158,4.087,7.808,10.36,10.923,15.983
	c-0.888,0.184-2.65,0.549-3.524,0.732c-7.611,10.487-17.914,18.521-26.398,28.218c-8.373-11.093-16.73-22.213-24.778-33.53
	C214.672,163.62,223.467,159.279,230.642,152.712 M233.277,204.396c9.852-9.415,17.929-20.492,27.709-30.021
	c6.681,2.819,13.982,4.539,19.874,8.95c5.834,4.765,10.612,10.684,15.01,16.772c-9.12,12.925-18.788,25.47-27.569,38.618
	C254.573,229.64,243.199,217.432,233.277,204.396 M527.145,198.814c2.944-3.51,6.68-6.216,10.711-8.371
	c2.101,12.669,3.228,25.468,4.046,38.278c0.281,5.174,1.972,10.276,1.282,15.49c-0.311,3.144-2.903,5.243-4.793,7.498
	c-4.13-16.604-4.679-33.826-8.779-50.429C528.99,200.66,527.765,199.435,527.145,198.814 M498.448,210.16
	c8.457-3.396,16.814-9.696,26.397-7.64c3.75,16.899,8.147,33.686,10.713,50.825c-3.832,4.34-8.541,7.766-13.46,10.768
	c-3.045-8.483-6.667-16.743-9.189-25.412C509.85,228.37,502.973,219.815,498.448,210.16 M297.829,202.732
	c8.696,1.114,17.463,2.001,25.947,4.313c4.947,1.212,7.753,5.821,10.091,9.936c-5.144,14.335-8.61,29.19-13.36,43.651
	c-17.11-3.368-33.417-10.275-48.273-19.339C281.874,229.201,289.541,215.742,297.829,202.732 M468.512,206.777
	c9.287-1.211,19.211-0.846,27.329,4.397c5.961,13.333,12.276,26.525,17.829,40.043c1.931,4.833,4.481,9.371,6.864,13.981
	c-14.348,8.539-31.247,10.557-47.569,11.923c-3.706-12.881-6.455-26.031-10.007-38.955c-2.817-8.923-5.229-17.958-7.934-26.893
	c-1.045-0.324-3.158-0.987-4.2-1.312C456.081,206.664,462.634,207.708,468.512,206.777 M424.34,218.857
	c8.231-2.326,16.955-8.684,25.595-4.469c2.48,2.621,2.89,6.624,4.087,9.965c4.005,16.223,10.248,31.811,13.927,48.118
	c1.184,1.55,2.354,3.129,3.537,4.693c-18.295,1.466-36.688,1.48-55.011,0.62C420.042,258.292,422.973,238.645,424.34,218.857
	 M390.852,218.814c4.116-1.819,8.202-4.538,12.911-3.946c5.342,0.507,10.289,2.748,15.291,4.538
	c-0.888,9.189-2.057,18.365-3.184,27.54c-1.144,10.248-3.82,20.269-4.638,30.557c-12.53-0.662-25.018-2.086-37.364-4.27
	c6.47-16.097,2.508-33.898,3.678-50.74C382.043,221.563,386.666,220.788,390.852,218.814 M336.785,218.236
	c6.668-0.986,13.391-2.565,20.155-1.818c5.652,0.762,10.994,2.818,16.337,4.723c-1.509,17.067-2.327,34.191-2.849,51.302
	c-15.969-2.311-31.46-6.935-47.132-10.641C329.569,247.863,332.909,232.936,336.785,218.236 M576.884,255.656
	c5.031-0.45,9.696-2.522,14.376-4.285c-4.031,3.892-8.852,6.978-14.18,8.768c-5.37,0.958-10.866,0.537-16.294,0.537
	c-0.083-2.61-0.183-5.217-0.28-7.823C565.791,254.445,571.26,256.36,576.884,255.656 M228.682,252.006
	c1.889,0.029,3.792,0.085,5.68,0.169c2.015,0.564,4.045,1.03,6.103,1.452c6.836,3.777,14.164,7.175,19.45,13.094
	c3.792,4.257,7.78,8.514,10.374,13.616c2.396,6.496,4.2,13.276,4.848,20.182c2.932,23.539,7.061,46.949,9.034,70.585
	c-0.423,6.625,0.804,14.786-4.355,19.874c-5.934,3.382-13.207,2.986-19.831,3.396c-2.17-4.34-7.752-2.282-11.572-3.073
	c-3.735-0.845-7.54-1.31-11.374-1.31c-16.293-4.666-31.275-16.533-36.757-32.953c-0.423-1.874-0.846-3.721-1.325-5.567
	c-0.465-1.917-0.917-3.805-1.41-5.707c-0.464-1.861-0.944-3.723-1.465-5.567c-0.395-2.861-0.874-5.708-1.537-8.527
	c-0.353-6.597-1.395-13.207-0.888-19.817c1.917-15.108,2.269-31.12,10.078-44.664c2.593-4.934,7.145-8.287,11.177-11.953
	c1.282-0.548,2.579-1.084,3.876-1.619C222.114,253.332,225.427,252.78,228.682,252.006 M170.106,298.645
	c2.791-4.018,5.735-7.921,8.879-11.656c4.032,2.819,8.062,5.624,12.191,8.288c-0.268,3.354-0.592,6.694-0.986,10.049
	C183.693,302.549,176.999,300.223,170.106,298.645 M520.407,300.209c1.395-2.72,4.494-3.396,7.074-4.481
	c10.332,7.286,20.775,14.431,30.712,22.239c1.748,1.748,4.863,3.411,4.158,6.33c-1.565,7.229-5.568,13.685-10.063,19.464
	c-0.212-6.258,0.465-12.544-0.127-18.787c-4.75-4.567-10.866-7.399-16.025-11.474C530.4,309.652,526.06,304.142,520.407,300.209
	 M158.944,301.548c2.649,0.38,5.313,0.762,7.963,1.142c-4.3,8.442-8.344,17.04-11.021,26.16c-1.65,3.481-3.271,6.99-5.061,10.415
	c0.648,3.763,1.128,7.568,1.254,11.401c-3.34-2.902-6.835-7.131-5.44-11.895c2.889-10.656,8.245-20.437,12.177-30.712
	C159.563,305.96,158.944,303.704,158.944,301.548 M503.043,302.915c4.03-0.958,8.217-0.748,12.305-0.268
	c-0.339,5.892-1.467,12.021,0.479,17.772c5.426,15.743,14.081,30.316,18.237,46.498c1.664,6.116-3.79,10.726-7.892,14.264
	c-1.862,0.505-3.693,1.057-5.512,1.677c-6.609,0.182-13.221,0.154-19.831-0.015c-14.064-4.172-29.004-8.004-40.196-18.069
	c-6.272-5.2-10.57-12.204-15.278-18.759c-3.367-4.638-5.355-10.19-6.242-15.829c-1.383-9.81,6.411-20.676,16.699-20.676
	C471.695,308.483,487.468,306.199,503.043,302.915 M280.986,313.924c19.182,3.411,38.252,7.639,57.773,8.737
	c19.704,1.339,39.466,0.522,59.196,0.239c3.003-0.041,6.004,0.283,8.992,0.72c-11.951,0.916-23.848,2.551-35.856,2.747
	c-29.726,1.804-59.351-2.07-88.878-4.86C281.79,318.983,281.367,316.444,280.986,313.924"/>
</svg>
